<svg xmlns="http://www.w3.org/2000/svg" viewBox="0 0 1800 1200" role="img" aria-label="Composition sportive avec basket, volley, voilier et BMX">
  <defs>
    <linearGradient id="sky" x1="0" y1="0" x2="1" y2="1">
      <stop offset="0" stop-color="#123e7a"/>
      <stop offset="0.46" stop-color="#0f6c5d"/>
      <stop offset="1" stop-color="#b31946"/>
    </linearGradient>
    <radialGradient id="light" cx="68%" cy="28%" r="48%">
      <stop offset="0" stop-color="#ffe9a6" stop-opacity="0.46"/>
      <stop offset="0.42" stop-color="#e3ba4f" stop-opacity="0.16"/>
      <stop offset="1" stop-color="#0d1118" stop-opacity="0"/>
    </radialGradient>
    <filter id="softShadow" x="-20%" y="-20%" width="140%" height="140%">
      <feDropShadow dx="0" dy="22" stdDeviation="24" flood-color="#000" flood-opacity="0.34"/>
    </filter>
    <pattern id="volleyPattern" width="180" height="180" patternUnits="userSpaceOnUse">
      <rect width="180" height="180" fill="#f7f2e7"/>
      <path d="M0 80 C52 30 108 28 180 58" fill="none" stroke="#123e7a" stroke-width="16"/>
      <path d="M42 180 C30 110 64 54 136 0" fill="none" stroke="#b31946" stroke-width="16"/>
      <path d="M96 180 C86 116 116 70 180 26" fill="none" stroke="#0f6c5d" stroke-width="16"/>
    </pattern>
  </defs>

  <rect width="1800" height="1200" fill="url(#sky)"/>
  <rect width="1800" height="1200" fill="url(#light)"/>

  <path d="M0 820 C260 760 426 892 678 830 C940 766 1096 676 1378 742 C1540 780 1670 822 1800 758 L1800 1200 L0 1200 Z" fill="#07131f" opacity="0.44"/>
  <path d="M0 930 C240 862 410 962 660 912 C934 858 1112 790 1394 850 C1560 886 1680 924 1800 878 L1800 1200 L0 1200 Z" fill="#061018" opacity="0.58"/>

  <g filter="url(#softShadow)">
    <circle cx="1260" cy="396" r="178" fill="#ce6b25"/>
    <path d="M1122 286 C1200 330 1308 334 1398 286" fill="none" stroke="#3d1c0e" stroke-width="10" opacity="0.7"/>
    <path d="M1088 402 C1194 356 1324 358 1434 410" fill="none" stroke="#3d1c0e" stroke-width="10" opacity="0.7"/>
    <path d="M1142 522 C1224 472 1324 464 1400 516" fill="none" stroke="#3d1c0e" stroke-width="10" opacity="0.7"/>
    <path d="M1260 218 C1210 328 1212 454 1266 574" fill="none" stroke="#3d1c0e" stroke-width="10" opacity="0.7"/>
  </g>

  <g filter="url(#softShadow)">
    <circle cx="1512" cy="636" r="134" fill="url(#volleyPattern)"/>
    <circle cx="1512" cy="636" r="134" fill="none" stroke="#fff" stroke-width="10" opacity="0.76"/>
  </g>

  <g transform="translate(1050 756)" filter="url(#softShadow)">
    <path d="M0 118 C92 166 228 166 330 116 C292 194 72 202 0 118 Z" fill="#f7f2e7"/>
    <path d="M142 112 L142 -164 C222 -98 286 -16 320 102 Z" fill="#ffffff"/>
    <path d="M126 106 L126 -112 C70 -72 34 -4 10 98 Z" fill="#e3ba4f"/>
    <path d="M142 -164 L142 116" stroke="#07131f" stroke-width="8"/>
    <path d="M-26 152 C78 116 230 116 356 150" fill="none" stroke="#7ee0da" stroke-width="16" opacity="0.8"/>
  </g>

  <g transform="translate(1188 912)" fill="none" stroke="#f9f7ef" stroke-linecap="round" stroke-linejoin="round" filter="url(#softShadow)">
    <circle cx="0" cy="120" r="72" stroke-width="16"/>
    <circle cx="286" cy="120" r="72" stroke-width="16"/>
    <path d="M0 120 L96 18 L174 120 L80 120 L152 38 L286 120" stroke-width="16"/>
    <path d="M96 18 L134 -42 L202 -44" stroke-width="16"/>
    <path d="M174 120 L226 18 L270 18" stroke-width="16"/>
    <path d="M80 120 L42 50" stroke-width="16"/>
    <path d="M116 -46 C152 -94 218 -102 262 -72" stroke="#e3ba4f" stroke-width="18"/>
  </g>

  <g opacity="0.18">
    <circle cx="300" cy="248" r="120" fill="#fff"/>
    <circle cx="430" cy="410" r="54" fill="#e3ba4f"/>
    <circle cx="1620" cy="212" r="74" fill="#fff"/>
  </g>
</svg>
